# File created by Blade
# Date/Time:  Tue Apr 07 20:17:56 2015
# Frame Rate: 120.000 fps
#------------------------------------------------------
:FULLY-SPECIFIED
:DEGREES
1735
root 3.713940 32.769561 -7.415069 14.365619 -1.009656 -2.059746
Spine -17.649004 -3.297843 1.130263
Head 14.582229 2.008948 0.579606
LeftShoulder -23.220801 39.359643 21.145395
LeftArm 51.053947 -59.579015 -54.559281
LeftForeArm 11.328834 -0.000000 -0.823520
LeftHand 5.612526 0.000000 5.078958
LeftHandThumb1 -26.253704 0.000000 33.147579
RightShoulder -10.217727 7.628200 -34.616521
RightArm 8.656781 17.672671 32.870144
RightForeArm -14.478751 -0.000000 1.391190
RightHand 0.485012 -0.000000 0.780778
RightHandThumb1 -24.326973 -0.000000 -32.862282
LeftUpLeg -5.349593 -6.346247 2.000946
LeftLeg -5.089406 -0.000000 0.000000
LeftFoot -6.419379 7.806793 -17.454009
LeftToeBase -8.014882 -0.000000 0.000000
RightUpLeg -7.974870 -2.205330 3.207639
RightLeg -4.180060 -0.000000 0.000000
RightFoot -5.400617 -6.525164 5.705755
RightToeBase 4.425508 -0.000000 -0.000000
1736
root 3.711978 32.772289 -7.414173 14.388365 -1.009556 -2.055870
Spine -17.699799 -3.294229 1.116320
Head 14.706250 2.059100 0.577333
LeftShoulder -23.168014 39.414356 21.142365
LeftArm 51.197612 -59.402704 -54.766872
LeftForeArm 11.407136 -0.000000 -0.844255
LeftHand 5.780362 -0.000000 4.592140
LeftHandThumb1 -26.253704 0.000000 33.147579
RightShoulder -10.182658 7.581620 -34.567967
RightArm 8.666417 17.680134 33.038901
RightForeArm -14.355527 -0.000000 1.353956
RightHand 0.454912 0.000000 0.824460
RightHandThumb1 -24.326973 -0.000000 -32.862282
LeftUpLeg -5.374126 -6.395868 2.003196
LeftLeg -5.084325 -0.000000 0.000000
LeftFoot -6.406028 7.898682 -17.421140
LeftToeBase -8.001073 -0.000000 0.000000
RightUpLeg -8.016572 -2.235350 3.205809
RightLeg -4.133665 -0.000000 0.000000
RightFoot -5.426905 -6.465059 5.712230
RightToeBase 4.477648 -0.000000 -0.000000
1737
root 3.710932 32.775239 -7.413786 14.399364 -1.028043 -2.044405
Spine -17.736022 -3.280339 1.083891
Head 14.830645 2.109584 0.604267
LeftShoulder -23.116228 39.458163 21.129519
LeftArm 51.282681 -59.169560 -54.870858
LeftForeArm 11.223696 0.000000 -0.885652
LeftHand 6.024363 -0.000000 4.057013
LeftHandThumb1 -26.253704 0.000000 33.147579
RightShoulder -10.142725 7.552673 -34.501987
RightArm 8.668952 17.650683 33.201824
RightForeArm -14.154277 -0.000000 1.301365
RightHand 0.758136 -0.000000 0.886617
RightHandThumb1 -24.326973 -0.000000 -32.862282
LeftUpLeg -5.404767 -6.377432 1.982290
LeftLeg -5.040591 -0.000000 0.000000
LeftFoot -6.393157 7.925346 -17.347149
LeftToeBase -8.006076 -0.000000 0.000000
RightUpLeg -8.051067 -2.222229 3.185255
RightLeg -4.081054 -0.000000 0.000000
RightFoot -5.462312 -6.420865 5.817052
RightToeBase 4.520558 -0.000000 -0.000000
1738
root 3.706710 32.777027 -7.412154 14.387135 -1.048631 -2.042016
Spine -17.743626 -3.264839 1.044844
Head 14.947140 2.168492 0.658922
LeftShoulder -23.071376 39.506103 21.099601
LeftArm 51.490486 -58.999774 -55.067061
LeftForeArm 11.178437 -0.000000 -0.982738
LeftHand 5.941526 0.000000 3.993582
LeftHandThumb1 -26.253704 0.000000 33.147579
RightShoulder -10.111861 7.497398 -34.435090
RightArm 8.687321 17.608395 33.410473
RightForeArm -14.051468 0.000000 1.273744
RightHand 0.778378 0.000000 1.012828
RightHandThumb1 -24.326973 -0.000000 -32.862282
LeftUpLeg -5.395090 -6.395865 1.975612
LeftLeg -5.031601 -0.000000 0.000000
LeftFoot -6.367579 8.017246 -17.270804
LeftToeBase -8.109562 -0.000000 0.000000
RightUpLeg -8.054241 -2.183801 3.178984
RightLeg -4.037380 -0.000000 0.000000
RightFoot -5.526862 -6.419139 5.958163
RightToeBase 4.611337 -0.000000 -0.000000
1739
root 3.699834 32.779086 -7.411606 14.363446 -1.086862 -2.058849
Spine -17.735686 -3.255278 1.020729
Head 15.062223 2.243653 0.724666
LeftShoulder -23.067865 39.558956 21.057757
LeftArm 51.460267 -58.718235 -54.989201
LeftForeArm 10.877659 -0.000000 -1.096714
LeftHand 5.946246 -0.000000 3.877908
LeftHandThumb1 -26.253704 0.000000 33.147579
RightShoulder -10.062017 7.451866 -34.357835
RightArm 8.711150 17.591621 33.634145
RightForeArm -13.971412 -0.000000 1.259535
RightHand 0.835770 -0.000000 0.842380
RightHandThumb1 -24.326973 -0.000000 -32.862282
LeftUpLeg -5.375537 -6.353314 1.974773
LeftLeg -5.009932 -0.000000 0.000000
LeftFoot -6.377616 8.084824 -17.165384
LeftToeBase -8.149466 -0.000000 0.000000
RightUpLeg -8.053822 -2.126063 3.190552
RightLeg -3.981646 -0.000000 0.000000
RightFoot -5.571129 -6.415488 6.017156
RightToeBase 4.703951 -0.000000 -0.000000
